#N canvas 795 447 504 231 10;
#N canvas 73 296 1180 260 octava_1 0;
#X msg 18 87 140;
#X msg 49 87 144.698;
#X msg 103 87 149.554;
#X msg 157 87 154.573;
#X msg 212 87 159.76;
#X msg 261 87 165.121;
#X msg 316 87 170.662;
#X msg 370 87 176.389;
#X msg 425 87 182.308;
#X msg 479 87 188.426;
#X msg 533 87 194.749;
#X msg 588 87 201.284;
#X msg 642 87 208.04;
#X msg 691 86 215.02;
#X msg 739 86 222.236;
#X msg 793 86 229.694;
#X msg 847 85 237.402;
#X msg 901 85 245.368;
#X msg 955 85 253.602;
#X msg 1009 84 262.112;
#X msg 1065 84 270.908;
#X obj 16 23 inlet;
#X obj 42 52 select 1 2 3 4 5 6 7 8 9 10 11 12 13 14 15 16 17 18 19
20 21, f 173;
#X obj 620 201 / 2;
#X obj 620 228 outlet;
#X connect 0 0 23 0;
#X connect 1 0 23 0;
#X connect 2 0 23 0;
#X connect 3 0 23 0;
#X connect 4 0 23 0;
#X connect 5 0 23 0;
#X connect 6 0 23 0;
#X connect 7 0 23 0;
#X connect 8 0 23 0;
#X connect 9 0 23 0;
#X connect 10 0 23 0;
#X connect 11 0 23 0;
#X connect 12 0 23 0;
#X connect 13 0 23 0;
#X connect 14 0 23 0;
#X connect 15 0 23 0;
#X connect 16 0 23 0;
#X connect 17 0 23 0;
#X connect 18 0 23 0;
#X connect 19 0 23 0;
#X connect 20 0 23 0;
#X connect 21 0 22 0;
#X connect 22 0 0 0;
#X connect 22 1 1 0;
#X connect 22 2 2 0;
#X connect 22 3 3 0;
#X connect 22 4 4 0;
#X connect 22 5 5 0;
#X connect 22 6 6 0;
#X connect 22 7 7 0;
#X connect 22 8 8 0;
#X connect 22 9 9 0;
#X connect 22 10 10 0;
#X connect 22 11 11 0;
#X connect 22 12 12 0;
#X connect 22 13 13 0;
#X connect 22 14 14 0;
#X connect 22 15 15 0;
#X connect 22 16 16 0;
#X connect 22 17 17 0;
#X connect 22 18 18 0;
#X connect 22 19 19 0;
#X connect 22 20 20 0;
#X connect 23 0 24 0;
#X restore 30 86 pd octava_1;
#N canvas 73 296 1180 260 octava_2 0;
#X msg 18 87 140;
#X msg 49 87 144.698;
#X msg 103 87 149.554;
#X msg 157 87 154.573;
#X msg 212 87 159.76;
#X msg 261 87 165.121;
#X msg 316 87 170.662;
#X msg 370 87 176.389;
#X msg 425 87 182.308;
#X msg 479 87 188.426;
#X msg 533 87 194.749;
#X msg 588 87 201.284;
#X msg 642 87 208.04;
#X msg 691 86 215.02;
#X msg 739 86 222.236;
#X msg 793 86 229.694;
#X msg 847 85 237.402;
#X msg 901 85 245.368;
#X msg 955 85 253.602;
#X msg 1009 84 262.112;
#X msg 1065 84 270.908;
#X obj 16 23 inlet;
#X obj 42 52 select 1 2 3 4 5 6 7 8 9 10 11 12 13 14 15 16 17 18 19
20 21, f 173;
#X obj 620 228 outlet;
#X obj 620 201 * 1;
#X connect 0 0 24 0;
#X connect 1 0 24 0;
#X connect 2 0 24 0;
#X connect 3 0 24 0;
#X connect 4 0 24 0;
#X connect 5 0 24 0;
#X connect 6 0 24 0;
#X connect 7 0 24 0;
#X connect 8 0 24 0;
#X connect 9 0 24 0;
#X connect 10 0 24 0;
#X connect 11 0 24 0;
#X connect 12 0 24 0;
#X connect 13 0 24 0;
#X connect 14 0 24 0;
#X connect 15 0 24 0;
#X connect 16 0 24 0;
#X connect 17 0 24 0;
#X connect 18 0 24 0;
#X connect 19 0 24 0;
#X connect 20 0 24 0;
#X connect 21 0 22 0;
#X connect 22 0 0 0;
#X connect 22 1 1 0;
#X connect 22 2 2 0;
#X connect 22 3 3 0;
#X connect 22 4 4 0;
#X connect 22 5 5 0;
#X connect 22 6 6 0;
#X connect 22 7 7 0;
#X connect 22 8 8 0;
#X connect 22 9 9 0;
#X connect 22 10 10 0;
#X connect 22 11 11 0;
#X connect 22 12 12 0;
#X connect 22 13 13 0;
#X connect 22 14 14 0;
#X connect 22 15 15 0;
#X connect 22 16 16 0;
#X connect 22 17 17 0;
#X connect 22 18 18 0;
#X connect 22 19 19 0;
#X connect 22 20 20 0;
#X connect 24 0 23 0;
#X restore 108 88 pd octava_2;
#N canvas 73 296 1180 260 octava_3 0;
#X msg 18 87 140;
#X msg 49 87 144.698;
#X msg 103 87 149.554;
#X msg 157 87 154.573;
#X msg 212 87 159.76;
#X msg 261 87 165.121;
#X msg 316 87 170.662;
#X msg 370 87 176.389;
#X msg 425 87 182.308;
#X msg 479 87 188.426;
#X msg 533 87 194.749;
#X msg 588 87 201.284;
#X msg 642 87 208.04;
#X msg 691 86 215.02;
#X msg 739 86 222.236;
#X msg 793 86 229.694;
#X msg 847 85 237.402;
#X msg 901 85 245.368;
#X msg 955 85 253.602;
#X msg 1009 84 262.112;
#X msg 1065 84 270.908;
#X obj 16 23 inlet;
#X obj 42 52 select 1 2 3 4 5 6 7 8 9 10 11 12 13 14 15 16 17 18 19
20 21, f 173;
#X obj 620 228 outlet;
#X obj 620 201 * 2;
#X connect 0 0 24 0;
#X connect 1 0 24 0;
#X connect 2 0 24 0;
#X connect 3 0 24 0;
#X connect 4 0 24 0;
#X connect 5 0 24 0;
#X connect 6 0 24 0;
#X connect 7 0 24 0;
#X connect 8 0 24 0;
#X connect 9 0 24 0;
#X connect 10 0 24 0;
#X connect 11 0 24 0;
#X connect 12 0 24 0;
#X connect 13 0 24 0;
#X connect 14 0 24 0;
#X connect 15 0 24 0;
#X connect 16 0 24 0;
#X connect 17 0 24 0;
#X connect 18 0 24 0;
#X connect 19 0 24 0;
#X connect 20 0 24 0;
#X connect 21 0 22 0;
#X connect 22 0 0 0;
#X connect 22 1 1 0;
#X connect 22 2 2 0;
#X connect 22 3 3 0;
#X connect 22 4 4 0;
#X connect 22 5 5 0;
#X connect 22 6 6 0;
#X connect 22 7 7 0;
#X connect 22 8 8 0;
#X connect 22 9 9 0;
#X connect 22 10 10 0;
#X connect 22 11 11 0;
#X connect 22 12 12 0;
#X connect 22 13 13 0;
#X connect 22 14 14 0;
#X connect 22 15 15 0;
#X connect 22 16 16 0;
#X connect 22 17 17 0;
#X connect 22 18 18 0;
#X connect 22 19 19 0;
#X connect 22 20 20 0;
#X connect 24 0 23 0;
#X restore 186 88 pd octava_3;
#N canvas 73 296 1180 260 octava_4 0;
#X msg 18 87 140;
#X msg 49 87 144.698;
#X msg 103 87 149.554;
#X msg 157 87 154.573;
#X msg 212 87 159.76;
#X msg 261 87 165.121;
#X msg 316 87 170.662;
#X msg 370 87 176.389;
#X msg 425 87 182.308;
#X msg 479 87 188.426;
#X msg 533 87 194.749;
#X msg 588 87 201.284;
#X msg 642 87 208.04;
#X msg 691 86 215.02;
#X msg 739 86 222.236;
#X msg 793 86 229.694;
#X msg 847 85 237.402;
#X msg 901 85 245.368;
#X msg 955 85 253.602;
#X msg 1009 84 262.112;
#X msg 1065 84 270.908;
#X obj 16 23 inlet;
#X obj 42 52 select 1 2 3 4 5 6 7 8 9 10 11 12 13 14 15 16 17 18 19
20 21, f 173;
#X obj 620 228 outlet;
#X obj 620 201 * 4;
#X connect 0 0 24 0;
#X connect 1 0 24 0;
#X connect 2 0 24 0;
#X connect 3 0 24 0;
#X connect 4 0 24 0;
#X connect 5 0 24 0;
#X connect 6 0 24 0;
#X connect 7 0 24 0;
#X connect 8 0 24 0;
#X connect 9 0 24 0;
#X connect 10 0 24 0;
#X connect 11 0 24 0;
#X connect 12 0 24 0;
#X connect 13 0 24 0;
#X connect 14 0 24 0;
#X connect 15 0 24 0;
#X connect 16 0 24 0;
#X connect 17 0 24 0;
#X connect 18 0 24 0;
#X connect 19 0 24 0;
#X connect 20 0 24 0;
#X connect 21 0 22 0;
#X connect 22 0 0 0;
#X connect 22 1 1 0;
#X connect 22 2 2 0;
#X connect 22 3 3 0;
#X connect 22 4 4 0;
#X connect 22 5 5 0;
#X connect 22 6 6 0;
#X connect 22 7 7 0;
#X connect 22 8 8 0;
#X connect 22 9 9 0;
#X connect 22 10 10 0;
#X connect 22 11 11 0;
#X connect 22 12 12 0;
#X connect 22 13 13 0;
#X connect 22 14 14 0;
#X connect 22 15 15 0;
#X connect 22 16 16 0;
#X connect 22 17 17 0;
#X connect 22 18 18 0;
#X connect 22 19 19 0;
#X connect 22 20 20 0;
#X connect 24 0 23 0;
#X restore 263 89 pd octava_4;
#N canvas 73 296 1180 260 octava_5 0;
#X msg 18 87 140;
#X msg 49 87 144.698;
#X msg 103 87 149.554;
#X msg 157 87 154.573;
#X msg 212 87 159.76;
#X msg 261 87 165.121;
#X msg 316 87 170.662;
#X msg 370 87 176.389;
#X msg 425 87 182.308;
#X msg 479 87 188.426;
#X msg 533 87 194.749;
#X msg 588 87 201.284;
#X msg 642 87 208.04;
#X msg 691 86 215.02;
#X msg 739 86 222.236;
#X msg 793 86 229.694;
#X msg 847 85 237.402;
#X msg 901 85 245.368;
#X msg 955 85 253.602;
#X msg 1009 84 262.112;
#X msg 1065 84 270.908;
#X obj 16 23 inlet;
#X obj 42 52 select 1 2 3 4 5 6 7 8 9 10 11 12 13 14 15 16 17 18 19
20 21, f 173;
#X obj 620 228 outlet;
#X obj 620 201 * 8;
#X connect 0 0 24 0;
#X connect 1 0 24 0;
#X connect 2 0 24 0;
#X connect 3 0 24 0;
#X connect 4 0 24 0;
#X connect 5 0 24 0;
#X connect 6 0 24 0;
#X connect 7 0 24 0;
#X connect 8 0 24 0;
#X connect 9 0 24 0;
#X connect 10 0 24 0;
#X connect 11 0 24 0;
#X connect 12 0 24 0;
#X connect 13 0 24 0;
#X connect 14 0 24 0;
#X connect 15 0 24 0;
#X connect 16 0 24 0;
#X connect 17 0 24 0;
#X connect 18 0 24 0;
#X connect 19 0 24 0;
#X connect 20 0 24 0;
#X connect 21 0 22 0;
#X connect 22 0 0 0;
#X connect 22 1 1 0;
#X connect 22 2 2 0;
#X connect 22 3 3 0;
#X connect 22 4 4 0;
#X connect 22 5 5 0;
#X connect 22 6 6 0;
#X connect 22 7 7 0;
#X connect 22 8 8 0;
#X connect 22 9 9 0;
#X connect 22 10 10 0;
#X connect 22 11 11 0;
#X connect 22 12 12 0;
#X connect 22 13 13 0;
#X connect 22 14 14 0;
#X connect 22 15 15 0;
#X connect 22 16 16 0;
#X connect 22 17 17 0;
#X connect 22 18 18 0;
#X connect 22 19 19 0;
#X connect 22 20 20 0;
#X connect 24 0 23 0;
#X restore 340 90 pd octava_5;
#N canvas 73 296 1180 260 octava_6 0;
#X msg 18 87 140;
#X msg 49 87 144.698;
#X msg 103 87 149.554;
#X msg 157 87 154.573;
#X msg 212 87 159.76;
#X msg 261 87 165.121;
#X msg 316 87 170.662;
#X msg 370 87 176.389;
#X msg 425 87 182.308;
#X msg 479 87 188.426;
#X msg 533 87 194.749;
#X msg 588 87 201.284;
#X msg 642 87 208.04;
#X msg 691 86 215.02;
#X msg 739 86 222.236;
#X msg 793 86 229.694;
#X msg 847 85 237.402;
#X msg 901 85 245.368;
#X msg 955 85 253.602;
#X msg 1009 84 262.112;
#X msg 1065 84 270.908;
#X obj 16 23 inlet;
#X obj 42 52 select 1 2 3 4 5 6 7 8 9 10 11 12 13 14 15 16 17 18 19
20 21, f 173;
#X obj 620 228 outlet;
#X obj 620 201 * 16;
#X connect 0 0 24 0;
#X connect 1 0 24 0;
#X connect 2 0 24 0;
#X connect 3 0 24 0;
#X connect 4 0 24 0;
#X connect 5 0 24 0;
#X connect 6 0 24 0;
#X connect 7 0 24 0;
#X connect 8 0 24 0;
#X connect 9 0 24 0;
#X connect 10 0 24 0;
#X connect 11 0 24 0;
#X connect 12 0 24 0;
#X connect 13 0 24 0;
#X connect 14 0 24 0;
#X connect 15 0 24 0;
#X connect 16 0 24 0;
#X connect 17 0 24 0;
#X connect 18 0 24 0;
#X connect 19 0 24 0;
#X connect 20 0 24 0;
#X connect 21 0 22 0;
#X connect 22 0 0 0;
#X connect 22 1 1 0;
#X connect 22 2 2 0;
#X connect 22 3 3 0;
#X connect 22 4 4 0;
#X connect 22 5 5 0;
#X connect 22 6 6 0;
#X connect 22 7 7 0;
#X connect 22 8 8 0;
#X connect 22 9 9 0;
#X connect 22 10 10 0;
#X connect 22 11 11 0;
#X connect 22 12 12 0;
#X connect 22 13 13 0;
#X connect 22 14 14 0;
#X connect 22 15 15 0;
#X connect 22 16 16 0;
#X connect 22 17 17 0;
#X connect 22 18 18 0;
#X connect 22 19 19 0;
#X connect 22 20 20 0;
#X connect 24 0 23 0;
#X restore 416 90 pd octava_6;
#N canvas 73 296 1180 260 octava_0 0;
#X msg 18 87 140;
#X msg 49 87 144.698;
#X msg 103 87 149.554;
#X msg 157 87 154.573;
#X msg 212 87 159.76;
#X msg 261 87 165.121;
#X msg 316 87 170.662;
#X msg 370 87 176.389;
#X msg 425 87 182.308;
#X msg 479 87 188.426;
#X msg 533 87 194.749;
#X msg 588 87 201.284;
#X msg 642 87 208.04;
#X msg 691 86 215.02;
#X msg 739 86 222.236;
#X msg 793 86 229.694;
#X msg 847 85 237.402;
#X msg 901 85 245.368;
#X msg 955 85 253.602;
#X msg 1009 84 262.112;
#X msg 1065 84 270.908;
#X obj 16 23 inlet;
#X obj 42 52 select 1 2 3 4 5 6 7 8 9 10 11 12 13 14 15 16 17 18 19
20 21, f 173;
#X obj 620 228 outlet;
#X obj 620 201 / 4;
#X connect 0 0 24 0;
#X connect 1 0 24 0;
#X connect 2 0 24 0;
#X connect 3 0 24 0;
#X connect 4 0 24 0;
#X connect 5 0 24 0;
#X connect 6 0 24 0;
#X connect 7 0 24 0;
#X connect 8 0 24 0;
#X connect 9 0 24 0;
#X connect 10 0 24 0;
#X connect 11 0 24 0;
#X connect 12 0 24 0;
#X connect 13 0 24 0;
#X connect 14 0 24 0;
#X connect 15 0 24 0;
#X connect 16 0 24 0;
#X connect 17 0 24 0;
#X connect 18 0 24 0;
#X connect 19 0 24 0;
#X connect 20 0 24 0;
#X connect 21 0 22 0;
#X connect 22 0 0 0;
#X connect 22 1 1 0;
#X connect 22 2 2 0;
#X connect 22 3 3 0;
#X connect 22 4 4 0;
#X connect 22 5 5 0;
#X connect 22 6 6 0;
#X connect 22 7 7 0;
#X connect 22 8 8 0;
#X connect 22 9 9 0;
#X connect 22 10 10 0;
#X connect 22 11 11 0;
#X connect 22 12 12 0;
#X connect 22 13 13 0;
#X connect 22 14 14 0;
#X connect 22 15 15 0;
#X connect 22 16 16 0;
#X connect 22 17 17 0;
#X connect 22 18 18 0;
#X connect 22 19 19 0;
#X connect 22 20 20 0;
#X connect 24 0 23 0;
#X restore 35 52 pd octava_0;
