#N canvas 400 235 603 413 10;
#X obj 40 198 phasor~;
#X obj 40 220 *~ 2;
#X obj 40 243 -~ 1;
#X obj 125 198 osc~;
#X obj 125 220 +~ 1;
#X obj 125 242 /~ 2;
#X obj 125 266 *~;
#X obj 125 292 +~;
#X obj 262 135 phasor~;
#X obj 262 157 *~ 2;
#X obj 262 180 -~ 1;
#X obj 373 246 vcf~;
#X obj 383 111 osc~;
#X obj 383 133 +~ 1;
#X obj 383 155 /~ 2;
#X obj 383 179 *~;
#X obj 383 205 +~;
#X obj 324 136 phasor~;
#X obj 324 158 *~ 2;
#X obj 324 181 -~ 1;
#X obj 324 112 +~ 1;
#X connect 0 0 1 0;
#X connect 1 0 2 0;
#X connect 3 0 4 0;
#X connect 4 0 5 0;
#X connect 5 0 6 0;
#X connect 6 0 7 0;
#X connect 8 0 9 0;
#X connect 9 0 10 0;
#X connect 12 0 13 0;
#X connect 13 0 14 0;
#X connect 14 0 15 0;
#X connect 15 0 16 0;
#X connect 16 0 11 1;
#X connect 17 0 18 0;
#X connect 18 0 19 0;
#X connect 20 0 17 0;
