#N canvas 0 22 450 300 10;
#N canvas 209 189 817 579 sinteFmOsc 0;
#X obj 35 167 sig~;
#X obj 36 341 +~;
#X obj 54 397 osc~;
#X obj 137 257 osc~;
#X obj 137 295 *~;
#X obj 188 269 *~;
#X obj 35 127 t f b;
#X obj 199 421 vline~;
#X obj 184 462 *~;
#X obj 184 508 outlet~;
#X obj 26 25 inlet;
#X obj 247 255 osc~;
#X obj 247 293 *~;
#X obj 298 267 *~;
#X obj 194 343 +~;
#X obj 351 253 osc~;
#X obj 351 291 *~;
#X obj 402 265 *~;
#X obj 461 251 osc~;
#X obj 461 289 *~;
#X obj 512 263 *~;
#X obj 333 340 +~;
#X obj 250 348 +~;
#X obj 451 213 *~ 5;
#X obj 189 76 +~ 1;
#X obj 189 98 /~ 2;
#X obj 189 122 *~ 2;
#X obj 286 74 +~ 1;
#X obj 286 96 /~ 2;
#X obj 286 120 *~ 1;
#X obj 396 89 +~ 1;
#X obj 396 111 /~ 2;
#X obj 396 135 *~ 2.6;
#X obj 524 111 +~ 1;
#X obj 524 133 /~ 2;
#X obj 524 157 *~ 1;
#X msg 323 19 0;
#X obj 286 52 osc~ 3.2;
#X msg 463 30 0.5;
#X msg 227 23 0.7;
#X msg 559 26 0.4;
#X obj 236 217 *~ 3;
#X obj 341 215 *~ 4;
#X obj 189 54 osc~ 0.7;
#X msg 198 390 1 2 \, 0.5 10 2 \, 0 500 15;
#X obj 127 219 *~ 0.5;
#X obj 524 89 osc~ 2;
#X obj 396 67 osc~ 0.9;
#X connect 0 0 1 0;
#X connect 0 0 23 0;
#X connect 0 0 41 0;
#X connect 0 0 42 0;
#X connect 0 0 45 0;
#X connect 1 0 2 0;
#X connect 2 0 8 0;
#X connect 3 0 4 0;
#X connect 4 0 14 0;
#X connect 5 0 4 1;
#X connect 6 0 0 0;
#X connect 6 1 44 0;
#X connect 6 1 39 0;
#X connect 6 1 36 0;
#X connect 6 1 38 0;
#X connect 6 1 40 0;
#X connect 7 0 8 1;
#X connect 8 0 9 0;
#X connect 10 0 6 0;
#X connect 11 0 12 0;
#X connect 12 0 22 0;
#X connect 13 0 12 1;
#X connect 14 0 1 1;
#X connect 15 0 16 0;
#X connect 16 0 21 0;
#X connect 17 0 16 1;
#X connect 18 0 19 0;
#X connect 19 0 21 1;
#X connect 20 0 19 1;
#X connect 21 0 22 1;
#X connect 22 0 14 1;
#X connect 23 0 18 0;
#X connect 23 0 20 0;
#X connect 24 0 25 0;
#X connect 25 0 26 0;
#X connect 26 0 5 1;
#X connect 27 0 28 0;
#X connect 28 0 29 0;
#X connect 29 0 13 1;
#X connect 30 0 31 0;
#X connect 31 0 32 0;
#X connect 32 0 17 1;
#X connect 33 0 34 0;
#X connect 34 0 35 0;
#X connect 35 0 20 1;
#X connect 36 0 37 1;
#X connect 37 0 27 0;
#X connect 38 0 47 1;
#X connect 39 0 43 1;
#X connect 40 0 46 1;
#X connect 41 0 11 0;
#X connect 41 0 13 0;
#X connect 42 0 15 0;
#X connect 42 0 17 0;
#X connect 43 0 24 0;
#X connect 44 0 7 0;
#X connect 45 0 3 0;
#X connect 45 0 5 0;
#X connect 46 0 33 0;
#X connect 47 0 30 0;
#X restore 84 157 pd sinteFmOsc;
