#N canvas 133 314 450 300 10;
#N canvas 0 22 573 472 sinteSub1 0;
#X obj 49 21 inlet;
#X obj 273 432 outlet~;
#X obj 100 179 phasor~;
#X obj 100 201 *~ 2;
#X obj 100 224 -~ 1;
#X obj 210 290 vcf~;
#X obj 221 177 +~ 1;
#X obj 221 199 /~ 2;
#X obj 221 249 +~;
#X obj 162 180 phasor~;
#X obj 162 202 *~ 2;
#X obj 162 225 -~ 1;
#X obj 162 156 +~ 1;
#X obj 299 313 vline~;
#X obj 276 349 *~;
#X obj 245 371 *~;
#X obj 181 89 t f b;
#X obj 125 114 sig~;
#X obj 221 223 *~ 120;
#X obj 221 334 *~ 4;
#X obj 297 210 line 30;
#X obj 221 155 osc~ 0.7;
#X msg 293 166 10 50;
#X obj 324 137 delay 50;
#X msg 343 165 30 500;
#X obj 310 234 int;
#X msg 299 283 1 10 \, 0 900 150;
#X connect 0 0 16 0;
#X connect 2 0 3 0;
#X connect 3 0 4 0;
#X connect 4 0 5 0;
#X connect 5 0 19 0;
#X connect 6 0 7 0;
#X connect 7 0 18 0;
#X connect 8 0 5 1;
#X connect 9 0 10 0;
#X connect 10 0 11 0;
#X connect 11 0 5 0;
#X connect 12 0 9 0;
#X connect 13 0 14 0;
#X connect 13 0 14 1;
#X connect 14 0 15 1;
#X connect 15 0 1 0;
#X connect 16 0 17 0;
#X connect 16 1 22 0;
#X connect 16 1 26 0;
#X connect 16 1 23 0;
#X connect 17 0 12 0;
#X connect 17 0 2 0;
#X connect 17 0 8 1;
#X connect 18 0 8 0;
#X connect 19 0 15 0;
#X connect 20 0 25 0;
#X connect 21 0 6 0;
#X connect 22 0 20 0;
#X connect 23 0 24 0;
#X connect 24 0 20 0;
#X connect 25 0 5 2;
#X connect 26 0 13 0;
#X restore 41 64 pd sinteSub1;
#N canvas 0 22 573 486 sinteSub2 0;
#X obj 49 21 inlet;
#X obj 273 432 outlet~;
#X obj 130 192 phasor~;
#X obj 130 214 *~ 2;
#X obj 130 237 -~ 1;
#X obj 240 303 vcf~;
#X obj 251 190 +~ 1;
#X obj 251 212 /~ 2;
#X obj 251 262 +~;
#X obj 192 193 phasor~;
#X obj 192 215 *~ 2;
#X obj 192 238 -~ 1;
#X obj 192 169 +~ 1;
#X obj 329 326 vline~;
#X obj 306 362 *~;
#X obj 275 384 *~;
#X obj 211 102 t f b;
#X obj 155 127 sig~;
#X obj 391 247 int;
#X obj 59 190 phasor~;
#X obj 59 212 *~ 2;
#X obj 59 235 -~ 1;
#X obj 60 163 /~ 4;
#X obj 285 260 /~ 2;
#X obj 251 168 osc~ 1.03;
#X obj 378 223 line 45;
#X msg 424 178 45 200;
#X msg 374 179 25 300;
#X obj 405 150 delay 300;
#X msg 329 296 1 5 \, 0 1200 50;
#X msg 213 133 0;
#X obj 327 168 *~ 3;
#X obj 328 196 /~ 2;
#X obj 330 228 -~;
#X obj 251 236 *~;
#X obj 251 347 *~ 6;
#X connect 0 0 16 0;
#X connect 2 0 3 0;
#X connect 3 0 4 0;
#X connect 4 0 5 0;
#X connect 5 0 35 0;
#X connect 6 0 7 0;
#X connect 7 0 34 0;
#X connect 8 0 5 1;
#X connect 9 0 10 0;
#X connect 10 0 11 0;
#X connect 11 0 5 0;
#X connect 12 0 9 0;
#X connect 13 0 14 0;
#X connect 13 0 14 1;
#X connect 14 0 15 1;
#X connect 15 0 1 0;
#X connect 16 0 17 0;
#X connect 16 1 27 0;
#X connect 16 1 29 0;
#X connect 16 1 28 0;
#X connect 16 1 30 0;
#X connect 17 0 12 0;
#X connect 17 0 2 0;
#X connect 17 0 22 0;
#X connect 17 0 23 0;
#X connect 17 0 31 0;
#X connect 17 0 33 1;
#X connect 18 0 5 2;
#X connect 19 0 20 0;
#X connect 20 0 21 0;
#X connect 21 0 5 0;
#X connect 22 0 19 0;
#X connect 23 0 8 1;
#X connect 24 0 6 0;
#X connect 25 0 18 0;
#X connect 26 0 25 0;
#X connect 27 0 25 0;
#X connect 28 0 26 0;
#X connect 29 0 13 0;
#X connect 30 0 24 1;
#X connect 31 0 32 0;
#X connect 32 0 33 0;
#X connect 33 0 34 1;
#X connect 34 0 8 0;
#X connect 35 0 15 0;
#X restore 147 66 pd sinteSub2;
#N canvas 0 22 573 486 sinteSub3 0;
#X obj 49 21 inlet;
#X obj 273 432 outlet~;
#X obj 130 192 phasor~;
#X obj 130 214 *~ 2;
#X obj 130 237 -~ 1;
#X obj 240 303 vcf~;
#X obj 251 190 +~ 1;
#X obj 251 212 /~ 2;
#X obj 251 262 +~;
#X obj 192 193 phasor~;
#X obj 192 215 *~ 2;
#X obj 192 238 -~ 1;
#X obj 192 169 +~ 1;
#X obj 329 326 vline~;
#X obj 306 362 *~;
#X obj 275 384 *~;
#X obj 211 102 t f b;
#X obj 155 127 sig~;
#X obj 391 247 int;
#X obj 59 190 phasor~;
#X obj 59 212 *~ 2;
#X obj 59 235 -~ 1;
#X obj 251 347 *~ 3;
#X obj 330 228 -~;
#X obj 251 236 *~;
#X obj 60 163 /~ 2;
#X obj 327 168 *~ 4;
#X obj 328 196 /~ 5;
#X msg 213 133 0.5;
#X obj 378 223 line 100;
#X msg 424 178 100 900;
#X obj 251 168 osc~ 2.8;
#X msg 329 296 1 35 \, 0 1200 50;
#X msg 374 179 5 45;
#X obj 405 150 delay 45;
#X connect 0 0 16 0;
#X connect 2 0 3 0;
#X connect 3 0 4 0;
#X connect 4 0 5 0;
#X connect 5 0 22 0;
#X connect 6 0 7 0;
#X connect 7 0 24 0;
#X connect 8 0 5 1;
#X connect 9 0 10 0;
#X connect 10 0 11 0;
#X connect 11 0 5 0;
#X connect 12 0 9 0;
#X connect 13 0 14 0;
#X connect 13 0 14 1;
#X connect 14 0 15 1;
#X connect 15 0 1 0;
#X connect 16 0 17 0;
#X connect 16 1 33 0;
#X connect 16 1 32 0;
#X connect 16 1 34 0;
#X connect 17 0 12 0;
#X connect 17 0 2 0;
#X connect 17 0 23 1;
#X connect 17 0 25 0;
#X connect 17 0 26 0;
#X connect 17 0 8 1;
#X connect 18 0 5 2;
#X connect 19 0 20 0;
#X connect 20 0 21 0;
#X connect 21 0 5 0;
#X connect 22 0 15 0;
#X connect 23 0 24 1;
#X connect 24 0 8 0;
#X connect 25 0 19 0;
#X connect 26 0 27 0;
#X connect 27 0 23 0;
#X connect 28 0 31 1;
#X connect 29 0 18 0;
#X connect 30 0 29 0;
#X connect 31 0 6 0;
#X connect 32 0 13 0;
#X connect 33 0 29 0;
#X connect 34 0 30 0;
#X restore 253 66 pd sinteSub3;
