#N canvas 502 428 241 216 10;
#X obj 45 50 metro;
#X obj 45 84 f;
#X obj 75 84 + 1;
#X msg 105 54 -1;
#X obj 45 113 mod;
#X obj 45 140 select;
#X obj 28 19 tgl 15 0 empty empty empty 17 7 0 10 -262144 -1 -1 0 1
;
#X connect 0 0 1 0;
#X connect 1 0 2 0;
#X connect 1 0 4 0;
#X connect 2 0 1 1;
#X connect 3 0 1 0;
#X connect 4 0 5 0;
#X connect 6 0 0 0;
